<svg width="123" height="108" viewBox="0 0 123 108" fill="none" xmlns="http://www.w3.org/2000/svg">
<path fill-rule="evenodd" clip-rule="evenodd" d="M87.5957 97.5573C78.541 92.7016 69.1946 88.412 59.6143 84.7157L59.5628 84.7046C56.5666 83.5503 55.4142 88.2508 58.396 89.3968C69.0823 93.5376 79.4646 98.4457 89.4564 104.08C90.9681 104.935 93.3755 104.004 93.1529 102.018L89.1908 73.4214C88.7405 70.395 83.8012 70.2355 84.2322 73.3622L87.5957 97.5573ZM31.1148 1.8735C33.1148 -0.626445 36.6467 0.373466 34.6148 10.8734C33.186 19.9227 36.2724 29.7613 39.1081 38.8005C39.2494 39.2508 39.39 39.6991 39.5294 40.1452C46.1073 61.1731 65.6101 75.1067 83.0151 87.532C85.6093 89.3826 83.2183 93.5908 80.6031 91.7096C62.4674 78.7138 42.4521 64.2987 35.1467 42.4608C27.321 23.5618 29.1148 4.37344 31.1148 1.8735Z" fill="#1B494B"/>
</svg>
